<svg xmlns="http://www.w3.org/2000/svg" viewBox="0 0 680 330" width="680" height="330" role="img" aria-label="The Device Sensor Certificates card: an SHT43 row with its serial number and a download button, and below it the SHT4x series certificate with its own download button"><defs><linearGradient id="primary" x1="0" y1="0" x2="0" y2="1"><stop offset="0" stop-color="#40546b"/><stop offset="1" stop-color="#2d3d4f"/></linearGradient><linearGradient id="secondary" x1="0" y1="0" x2="0" y2="1"><stop offset="0" stop-color="#f8fbfd"/><stop offset="1" stop-color="#edf3f8"/></linearGradient></defs><rect width="680" height="330" fill="#eef3f8"/><rect x="0" y="0" width="680" height="330" rx="0" fill="#d6e0ea"/><rect x="20" y="16" width="640" height="298" rx="10" fill="#f7fafc" stroke="#99aec1"/><text x="44" y="52" font-family="Inter, 'Inter Variable', system-ui, -apple-system, 'Noto Sans JP', sans-serif" font-size="19" font-weight="600" fill="#07111d" text-anchor="start">Device Sensor Certificates</text><rect x="44" y="68" width="592" height="1" rx="0" fill="#b0c0ce"/><rect x="44" y="82" width="69" height="30" rx="15" fill="#e0f2fe" stroke="#7dd3fc"/><text x="78.5" y="102" font-family="Inter, 'Inter Variable', system-ui, -apple-system, 'Noto Sans JP', sans-serif" font-size="14" font-weight="600" fill="#075985" text-anchor="middle">SHT43</text><rect x="121" y="82" width="151" height="30" rx="15" fill="#e8eef4" stroke="#b6c6d4"/><text x="196.5" y="102" font-family="Inter, 'Inter Variable', system-ui, -apple-system, 'Noto Sans JP', sans-serif" font-size="14" font-weight="600" fill="#2c4056" text-anchor="middle">Serial 23F1C088</text><rect x="280" y="82" width="101" height="30" rx="15" fill="#e8eef4" stroke="#b6c6d4"/><text x="330.5" y="102" font-family="Inter, 'Inter Variable', system-ui, -apple-system, 'Noto Sans JP', sans-serif" font-size="14" font-weight="600" fill="#2c4056" text-anchor="middle">CW-AIR-01</text><text x="44" y="142" font-family="Inter, 'Inter Variable', system-ui, -apple-system, 'Noto Sans JP', sans-serif" font-size="14" font-weight="400" fill="#465b72" text-anchor="start">Downloads the individual ISO17025 PDF returned by Sensirion</text><text x="44" y="162" font-family="Inter, 'Inter Variable', system-ui, -apple-system, 'Noto Sans JP', sans-serif" font-size="14" font-weight="400" fill="#465b72" text-anchor="start">Libellus for this serial number.</text><rect x="584" y="86" width="44" height="44" rx="10" fill="url(#primary)" stroke="#223140"/><path d="M606.0 97 v14 m-6 -6 l6 6 6 -6" fill="none" stroke="#f8fbfd" stroke-width="2.2" stroke-linecap="round" stroke-linejoin="round"/><path d="M595 118 h22" fill="none" stroke="#f8fbfd" stroke-width="2.2" stroke-linecap="round"/><circle cx="564" cy="78" r="18" fill="#b45309"/><text x="564" y="84" font-family="Inter, 'Inter Variable', system-ui, -apple-system, 'Noto Sans JP', sans-serif" font-size="18" font-weight="700" fill="#ffffff" text-anchor="middle">1</text><rect x="44" y="190" width="592" height="1" rx="0" fill="#b0c0ce"/><rect x="44" y="210" width="224" height="30" rx="15" fill="#e0f2fe" stroke="#7dd3fc"/><text x="156.0" y="230" font-family="Inter, 'Inter Variable', system-ui, -apple-system, 'Noto Sans JP', sans-serif" font-size="14" font-weight="600" fill="#075985" text-anchor="middle">SHT4x series certificate</text><text x="44" y="270" font-family="Inter, 'Inter Variable', system-ui, -apple-system, 'Noto Sans JP', sans-serif" font-size="14" font-weight="400" fill="#465b72" text-anchor="start">Downloads the generic SHT4x-series ISO calibration certificate.</text><text x="44" y="290" font-family="Inter, 'Inter Variable', system-ui, -apple-system, 'Noto Sans JP', sans-serif" font-size="14" font-weight="400" fill="#465b72" text-anchor="start">This is not specific to a serial number.</text><rect x="584" y="208" width="44" height="44" rx="10" fill="url(#primary)" stroke="#223140"/><path d="M606.0 219 v14 m-6 -6 l6 6 6 -6" fill="none" stroke="#f8fbfd" stroke-width="2.2" stroke-linecap="round" stroke-linejoin="round"/><path d="M595 240 h22" fill="none" stroke="#f8fbfd" stroke-width="2.2" stroke-linecap="round"/><circle cx="564" cy="200" r="18" fill="#b45309"/><text x="564" y="206" font-family="Inter, 'Inter Variable', system-ui, -apple-system, 'Noto Sans JP', sans-serif" font-size="18" font-weight="700" fill="#ffffff" text-anchor="middle">2</text></svg>
