<svg xmlns="http://www.w3.org/2000/svg" viewBox="0 0 680 340" width="680" height="340" role="img" aria-label="The chart: a red temperature line read against the left scale in degrees, and a blue humidity line read against the right scale in per cent"><defs><linearGradient id="primary" x1="0" y1="0" x2="0" y2="1"><stop offset="0" stop-color="#40546b"/><stop offset="1" stop-color="#2d3d4f"/></linearGradient><linearGradient id="secondary" x1="0" y1="0" x2="0" y2="1"><stop offset="0" stop-color="#f8fbfd"/><stop offset="1" stop-color="#edf3f8"/></linearGradient></defs><rect width="680" height="340" fill="#eef3f8"/><rect x="0" y="0" width="680" height="340" rx="0" fill="#e8eef3"/><rect x="16" y="16" width="648" height="308" rx="4" fill="#ffffff" stroke="#d4dee6"/><rect x="70" y="50" width="560" height="200" rx="2" fill="#fcfdff" stroke="#e6eaee"/><line x1="70" y1="74" x2="630" y2="74" stroke="#eef2f5" stroke-width="1"/><line x1="70" y1="112" x2="630" y2="112" stroke="#eef2f5" stroke-width="1"/><line x1="70" y1="150" x2="630" y2="150" stroke="#eef2f5" stroke-width="1"/><line x1="70" y1="188" x2="630" y2="188" stroke="#eef2f5" stroke-width="1"/><line x1="70" y1="226" x2="630" y2="226" stroke="#eef2f5" stroke-width="1"/><polyline points="78.0 119.8 86.3 110.5 94.7 102.0 103.0 94.6 111.3 88.4 119.7 83.7 128.0 80.5 136.3 79.0 144.7 79.0 153.0 80.8 161.3 84.1 169.7 89.0 178.0 95.2 186.3 102.7 194.7 111.3 203.0 120.7 211.3 130.8 219.7 141.2 228.0 151.8 236.3 162.2 244.7 172.2 253.0 181.5 261.3 190.0 269.7 197.4 278.0 203.6 286.3 208.3 294.7 211.5 303.0 213.0 311.3 213.0 319.7 211.2 328.0 207.9 336.3 203.0 344.7 196.8 353.0 189.3 361.3 180.7 369.7 171.3 378.0 161.2 386.3 150.8 394.7 140.2 403.0 129.8 411.3 119.8 419.7 110.5 428.0 102.0 436.3 94.6 444.7 88.4 453.0 83.7 461.3 80.5 469.7 79.0 478.0 79.0 486.3 80.8 494.7 84.1 503.0 89.0 511.3 95.2 519.7 102.7 528.0 111.3 536.3 120.7 544.7 130.8 553.0 141.2 561.3 151.8 569.7 162.2 578.0 172.2" fill="none" stroke="#d32f2f" stroke-width="3" stroke-linecap="round" stroke-linejoin="round"/><polyline points="78.0 144.5 86.3 150.1 94.7 155.5 103.0 160.7 111.3 165.5 119.7 169.8 128.0 173.6 136.3 176.7 144.7 179.0 153.0 180.5 161.3 181.2 169.7 181.0 178.0 179.9 186.3 178.0 194.7 175.3 203.0 171.9 211.3 167.9 219.7 163.3 228.0 158.3 236.3 152.9 244.7 147.5 253.0 141.9 261.3 136.5 269.7 131.3 278.0 126.5 286.3 122.2 294.7 118.4 303.0 115.3 311.3 113.0 319.7 111.5 328.0 110.8 336.3 111.0 344.7 112.1 353.0 114.0 361.3 116.7 369.7 120.1 378.0 124.1 386.3 128.7 394.7 133.7 403.0 139.1 411.3 144.5 419.7 150.1 428.0 155.5 436.3 160.7 444.7 165.5 453.0 169.8 461.3 173.6 469.7 176.7 478.0 179.0 486.3 180.5 494.7 181.2 503.0 181.0 511.3 179.9 519.7 178.0 528.0 175.3 536.3 171.9 544.7 167.9 553.0 163.3 561.3 158.3 569.7 152.9 578.0 147.5" fill="none" stroke="#2563eb" stroke-width="2.6" stroke-linecap="round" stroke-linejoin="round"/><text x="62" y="84" font-family="Inter, 'Inter Variable', system-ui, -apple-system, 'Noto Sans JP', sans-serif" font-size="13" font-weight="400" fill="#76818b" text-anchor="end">27.1</text><text x="62" y="138" font-family="Inter, 'Inter Variable', system-ui, -apple-system, 'Noto Sans JP', sans-serif" font-size="13" font-weight="400" fill="#76818b" text-anchor="end">23.5</text><text x="62" y="192" font-family="Inter, 'Inter Variable', system-ui, -apple-system, 'Noto Sans JP', sans-serif" font-size="13" font-weight="400" fill="#76818b" text-anchor="end">20.9</text><text x="62" y="246" font-family="Inter, 'Inter Variable', system-ui, -apple-system, 'Noto Sans JP', sans-serif" font-size="13" font-weight="400" fill="#76818b" text-anchor="end">15.7</text><text x="594" y="84" font-family="Inter, 'Inter Variable', system-ui, -apple-system, 'Noto Sans JP', sans-serif" font-size="13" font-weight="400" fill="#76818b" text-anchor="start">100%</text><text x="594" y="138" font-family="Inter, 'Inter Variable', system-ui, -apple-system, 'Noto Sans JP', sans-serif" font-size="13" font-weight="400" fill="#76818b" text-anchor="start">70%</text><text x="594" y="192" font-family="Inter, 'Inter Variable', system-ui, -apple-system, 'Noto Sans JP', sans-serif" font-size="13" font-weight="400" fill="#76818b" text-anchor="start">40%</text><text x="594" y="246" font-family="Inter, 'Inter Variable', system-ui, -apple-system, 'Noto Sans JP', sans-serif" font-size="13" font-weight="400" fill="#76818b" text-anchor="start">0%</text><circle cx="46" cy="90" r="18" fill="#b45309"/><text x="46" y="96" font-family="Inter, 'Inter Variable', system-ui, -apple-system, 'Noto Sans JP', sans-serif" font-size="18" font-weight="700" fill="#ffffff" text-anchor="middle">1</text><circle cx="640" cy="90" r="18" fill="#b45309"/><text x="640" y="96" font-family="Inter, 'Inter Variable', system-ui, -apple-system, 'Noto Sans JP', sans-serif" font-size="18" font-weight="700" fill="#ffffff" text-anchor="middle">2</text><rect x="190" y="276" width="16" height="10" rx="1" fill="#d32f2f"/><text x="214" y="286" font-family="Inter, 'Inter Variable', system-ui, -apple-system, 'Noto Sans JP', sans-serif" font-size="14" font-weight="400" fill="#22262a" text-anchor="start">Temperature (C)</text><rect x="360" y="276" width="16" height="10" rx="1" fill="#2563eb"/><text x="384" y="286" font-family="Inter, 'Inter Variable', system-ui, -apple-system, 'Noto Sans JP', sans-serif" font-size="14" font-weight="400" fill="#22262a" text-anchor="start">Humidity (%)</text></svg>
